<svg version="1.1" id="Layer_1" xmlns="http://www.w3.org/2000/svg" xmlns:xlink="http://www.w3.org/1999/xlink" x="0px" y="0px"
	 width="100%" viewBox="0 0 323 122" enable-background="new 0 0 323 122" xml:space="preserve">
<path fill="#FEFEFE" opacity="1.000000" stroke="none" 
	d="
M210.000000,123.000000 
	C141.333359,123.000000 73.166649,122.967178 5.000244,123.096519 
	C1.575747,123.103012 0.887278,122.426033 0.901326,118.999657 
	C1.057804,80.833641 1.043303,42.666607 0.916006,4.500378 
	C0.906056,1.517088 1.517663,0.915686 4.499976,0.918447 
	C109.833191,1.015968 215.166519,1.015951 320.499756,0.918511 
	C323.481232,0.915753 324.093933,1.515996 324.084045,4.500083 
	C323.956818,42.832981 323.956909,81.166595 324.083954,119.499496 
	C324.093811,122.482376 323.484283,123.094734 320.499939,123.084221 
	C283.833649,122.954933 247.166748,123.000000 210.000000,123.000000 
z"/>
<path fill="#090808" opacity="1.000000" stroke="none" 
	d="
M82.000168,28.385670 
	C98.317863,28.385738 114.136658,28.485090 129.952438,28.311329 
	C133.603699,28.271214 134.837723,29.225121 134.797318,33.052868 
	C134.604111,51.366058 134.618713,69.683266 134.788330,87.996925 
	C134.822189,91.653076 133.902206,92.846840 130.073181,92.829086 
	C97.772469,92.679352 65.470551,92.690331 33.169666,92.820389 
	C29.659922,92.834518 28.681421,91.830605 28.711069,88.355980 
	C28.868755,69.875595 28.908882,51.391666 28.686621,32.912609 
	C28.639118,28.963139 29.993689,28.271229 33.548462,28.309914 
	C49.530743,28.483849 65.515984,28.385674 82.000168,28.385670 
z"/>
<path fill="#121212" opacity="1.000000" stroke="none" 
	d="
M272.915985,54.147583 
	C272.912323,44.754150 272.912354,44.741917 281.880676,44.763760 
	C284.372345,44.769825 286.868042,44.798492 289.354279,44.945713 
	C293.995331,45.220524 298.008179,46.980137 299.588776,51.562355 
	C301.169037,56.143654 301.000671,60.901932 297.021393,64.451706 
	C295.225342,66.053902 295.250244,67.259468 296.486664,69.031761 
	C297.998474,71.198891 299.341675,73.483635 300.785400,75.761055 
	C294.025970,78.015503 292.618134,77.475174 289.417358,71.558098 
	C289.180176,71.119659 288.855072,70.712791 288.700836,70.248085 
	C287.683289,67.181992 285.123962,67.685432 282.881073,67.877953 
	C279.804901,68.141991 281.088379,70.740463 281.227478,72.145973 
	C281.598389,75.893311 280.354309,77.116318 276.554474,76.858055 
	C273.764343,76.668419 272.778137,75.909706 272.859436,73.072624 
	C273.035614,66.927353 272.915039,60.773571 272.915985,54.147583 
z"/>
<path fill="#131313" opacity="1.000000" stroke="none" 
	d="
M182.708588,69.145897 
	C177.953842,58.749973 181.634247,48.836834 191.179672,45.496819 
	C201.167267,42.002087 211.775192,47.149803 214.303711,56.718212 
	C216.096527,63.502625 213.253189,70.567535 207.201370,74.365509 
	C200.640213,78.483131 191.548538,77.856453 185.850113,72.811859 
	C184.744888,71.833443 183.876831,70.587097 182.708588,69.145897 
z"/>
<path fill="#101010" opacity="1.000000" stroke="none" 
	d="
M257.300079,52.225632 
	C257.273315,56.690205 257.463135,60.703300 257.173340,64.681458 
	C256.623352,72.231087 251.407288,76.781296 243.464355,76.975174 
	C234.709961,77.188873 229.064804,72.994576 228.400726,65.131325 
	C227.911606,59.339840 228.227524,53.482952 228.106522,47.656830 
	C228.032806,44.108223 230.568832,44.921135 232.625259,44.749302 
	C234.972122,44.553196 236.403839,44.998226 236.278748,47.893906 
	C236.084824,52.383152 236.203522,56.887169 236.235764,61.384598 
	C236.277298,67.176552 238.510803,70.113243 242.815369,70.121117 
	C247.125397,70.129005 249.089081,67.421478 249.154160,61.272839 
	C249.196472,57.275356 249.345490,53.266479 249.111237,49.282433 
	C248.912155,45.896690 249.924072,44.696823 253.537750,44.623878 
	C257.442993,44.545044 257.483826,46.547337 257.308594,49.260216 
	C257.255035,50.089661 257.300201,50.925484 257.300079,52.225632 
z"/>
<path fill="#191919" opacity="1.000000" stroke="none" 
	d="
M167.764923,61.070663 
	C167.996353,63.855434 167.349396,65.429695 164.524200,65.085587 
	C163.868484,65.005707 163.194885,65.070801 162.529510,65.072449 
	C154.181305,65.093163 153.967300,65.088135 153.764435,73.467163 
	C153.672531,77.262985 151.459274,76.691200 149.154846,76.787148 
	C146.716660,76.888641 145.067307,76.636017 145.141647,73.401398 
	C145.336487,64.922432 145.261139,56.435478 145.173828,47.952942 
	C145.149551,45.594700 146.024811,44.670975 148.373505,44.703381 
	C154.194351,44.783695 160.018707,44.808155 165.838257,44.689037 
	C168.248703,44.639698 168.984131,45.575665 169.019592,47.905388 
	C169.058685,50.473461 168.216171,51.547688 165.571625,51.379551 
	C162.920914,51.211033 160.247116,51.433380 157.590714,51.317680 
	C155.144196,51.211117 153.562637,51.459911 153.567703,54.667458 
	C153.572632,57.797890 154.654449,58.781273 157.630722,58.513081 
	C159.940689,58.304928 162.284927,58.499352 164.613190,58.464462 
	C166.220566,58.440376 167.683304,58.536110 167.764923,61.070663 
z"/>
<path fill="#E2DFDC" opacity="1.000000" stroke="none" 
	d="
M74.092606,71.374832 
	C67.485497,74.061501 60.935875,72.479729 54.527039,72.914314 
	C52.383511,73.059662 52.146603,71.669930 52.150406,70.014633 
	C52.167187,62.711674 52.181545,55.408531 52.142391,48.105743 
	C52.131702,46.111542 52.738667,44.977512 54.983875,45.044647 
	C59.626858,45.183468 64.311531,44.847668 68.909683,45.346508 
	C75.516090,46.063210 77.858208,50.913097 74.554649,56.686451 
	C73.725449,58.135582 73.776855,58.538609 74.929901,59.759834 
	C78.984291,64.053940 78.750343,66.768082 74.092606,71.374832 
z"/>
<path fill="#E5E2DF" opacity="1.000000" stroke="none" 
	d="
M97.407768,63.247452 
	C96.889481,66.962624 98.280830,68.133598 101.582001,67.814507 
	C104.387047,67.543373 107.239609,67.777672 110.070961,67.759499 
	C111.652336,67.749352 112.543343,68.279701 112.502708,70.074837 
	C112.463852,71.791367 112.179115,72.957077 110.061661,72.930428 
	C104.566147,72.861244 99.068108,72.847107 93.573273,72.940491 
	C91.237633,72.980194 90.848282,71.757225 90.862267,69.815582 
	C90.913849,62.653923 90.938889,55.490974 90.850403,48.330040 
	C90.821777,46.013573 91.602287,44.995464 94.013359,45.047211 
	C98.841331,45.150826 103.673309,45.102943 108.503204,45.063671 
	C110.328163,45.048832 111.785896,45.214607 111.881210,47.603043 
	C111.995224,50.460072 110.122391,50.294903 108.235390,50.284077 
	C105.737091,50.269737 103.234474,50.370735 100.741524,50.254524 
	C98.566612,50.153137 97.283936,50.618294 97.321159,53.205524 
	C97.356438,55.657639 98.429008,56.411598 100.699677,56.288319 
	C102.858475,56.171116 105.032188,56.342354 107.193100,56.246387 
	C109.242615,56.155365 110.248528,56.786949 110.174026,59.058521 
	C110.103180,61.218563 108.855965,61.179424 107.244797,61.449291 
	C103.984383,61.995392 100.314514,59.724003 97.407768,63.247452 
z"/>
<path fill="#EBEBEB" opacity="1.000000" stroke="none" 
	d="
M288.421204,61.172615 
	C281.008911,61.484028 281.044861,61.484108 281.057770,55.591057 
	C281.062988,53.209782 280.677032,50.775993 284.407379,51.176701 
	C287.731995,51.533821 291.802429,50.418751 292.504181,55.484699 
	C292.893280,58.293846 291.749237,60.320133 288.421204,61.172615 
z"/>
<path fill="#F5F5F5" opacity="1.000000" stroke="none" 
	d="
M190.949890,66.908615 
	C187.143860,59.583813 189.568237,52.682178 196.017563,51.646774 
	C200.286789,50.961369 203.513275,52.571087 205.424469,56.513004 
	C207.344955,60.474049 206.274124,65.726196 202.870728,68.252571 
	C198.751862,71.310036 194.818832,70.665924 190.949890,66.908615 
z"/>
<path fill="#151515" opacity="1.000000" stroke="none" 
	d="
M63.815548,61.211277 
	C65.730286,61.353676 67.222397,61.391212 68.669502,61.665871 
	C70.116028,61.940418 70.998962,63.002613 71.036133,64.451286 
	C71.078712,66.111298 70.137276,67.482384 68.524330,67.654137 
	C65.749817,67.949593 62.897282,68.148682 60.144569,67.822365 
	C57.698109,67.532349 58.806644,65.197510 58.746868,63.762295 
	C58.592297,60.051445 61.542824,61.564209 63.815548,61.211277 
z"/>
<path fill="#201F1F" opacity="1.000000" stroke="none" 
	d="
M60.144722,50.033859 
	C62.725925,50.061272 64.868340,50.029766 66.981949,50.261208 
	C68.651978,50.444080 69.665695,51.677559 69.672531,53.289371 
	C69.678528,54.701797 68.642639,55.776550 67.282669,56.102608 
	C64.576698,56.751373 61.431293,57.558765 59.260155,55.843082 
	C57.949810,54.807621 57.903126,51.912685 60.144722,50.033859 
z"/>
</svg>